<?xml version="1.0" encoding="UTF-8" standalone="no"?>
<!DOCTYPE svg PUBLIC "-//W3C//DTD SVG 1.1//EN"
 "http://www.w3.org/Graphics/SVG/1.1/DTD/svg11.dtd">
<!-- Generated by graphviz version 2.40.1 (20161225.0304)
 -->
<!-- Title: dependencies Pages: 1 -->
<svg width="627pt" height="284pt"
 viewBox="0.00 0.00 627.00 284.00" xmlns="http://www.w3.org/2000/svg" xmlns:xlink="http://www.w3.org/1999/xlink">
<g id="graph0" class="graph" transform="scale(1 1) rotate(0) translate(4 280)">
<title>dependencies</title>
<polygon fill="#ffffff" stroke="transparent" points="-4,4 -4,-280 623,-280 623,4 -4,4"/>
<text text-anchor="start" x="288.5091" y="-42.4" font-family="sans-serif" font-weight="bold" font-size="14.00" fill="#000000">Legend</text>
<polygon fill="#ffffb3" stroke="transparent" points="75.5,-10 75.5,-30 95.5,-30 95.5,-10 75.5,-10"/>
<text text-anchor="start" x="99.129" y="-15.4" font-family="sans-serif" font-size="14.00" fill="#000000"> &#160;Declarations</text>
<polygon fill="#8dd3c7" stroke="transparent" points="188.5,-10 188.5,-30 208.5,-30 208.5,-10 188.5,-10"/>
<text text-anchor="start" x="212.2251" y="-15.4" font-family="sans-serif" font-size="14.00" fill="#000000"> &#160;Module</text>
<polygon fill="#80b1d3" stroke="transparent" points="274.5,-10 274.5,-30 294.5,-30 294.5,-10 274.5,-10"/>
<text text-anchor="start" x="298.2812" y="-15.4" font-family="sans-serif" font-size="14.00" fill="#000000"> &#160;Bootstrap</text>
<polygon fill="#fdb462" stroke="transparent" points="371.5,-10 371.5,-30 391.5,-30 391.5,-10 371.5,-10"/>
<text text-anchor="start" x="395.1732" y="-15.4" font-family="sans-serif" font-size="14.00" fill="#000000"> &#160;Providers</text>
<polygon fill="#fb8072" stroke="transparent" points="467.5,-10 467.5,-30 487.5,-30 487.5,-10 467.5,-10"/>
<text text-anchor="start" x="491.2258" y="-15.4" font-family="sans-serif" font-size="14.00" fill="#000000"> &#160;Exports</text>
<g id="clust1" class="cluster">
<title>cluster_LayoutModule</title>
<polygon fill="none" stroke="#000000" stroke-dasharray="1,5" points="8,-70 8,-268 611,-268 611,-70 8,-70"/>
</g>
<g id="clust2" class="cluster">
<title>cluster_LayoutModule_declarations</title>
<polygon fill="none" stroke="#000000" points="184,-78 184,-130 603,-130 603,-78 184,-78"/>
</g>
<g id="clust6" class="cluster">
<title>cluster_LayoutModule_imports</title>
<polygon fill="none" stroke="#000000" points="16,-78 16,-130 176,-130 176,-78 16,-78"/>
</g>
<g id="clust8" class="cluster">
<title>cluster_LayoutModule_bootstrap</title>
<polygon fill="none" stroke="#000000" points="254,-208 254,-260 394,-260 394,-208 254,-208"/>
</g>
<!-- HeaderComponent -->
<g id="node1" class="node">
<title>HeaderComponent</title>
<polygon fill="#ffffb3" stroke="#000000" points="594.7437,-122 473.2563,-122 473.2563,-86 594.7437,-86 594.7437,-122"/>
<text text-anchor="middle" x="534" y="-99.8" font-family="Times,serif" font-size="14.00" fill="#000000">HeaderComponent</text>
</g>
<!-- LayoutModule -->
<g id="node4" class="node">
<title>LayoutModule</title>
<polygon fill="#8dd3c7" stroke="#000000" points="373.7078,-187 370.7078,-191 349.7078,-191 346.7078,-187 274.2922,-187 274.2922,-151 373.7078,-151 373.7078,-187"/>
<text text-anchor="middle" x="324" y="-164.8" font-family="Times,serif" font-size="14.00" fill="#000000">LayoutModule</text>
</g>
<!-- HeaderComponent&#45;&gt;LayoutModule -->
<g id="edge1" class="edge">
<title>HeaderComponent&#45;&gt;LayoutModule</title>
<path fill="none" stroke="#000000" d="M534,-122.1061C534,-141.3391 534,-169 534,-169 534,-169 383.7671,-169 383.7671,-169"/>
<polygon fill="#000000" stroke="#000000" points="383.7671,-165.5001 373.7671,-169 383.767,-172.5001 383.7671,-165.5001"/>
</g>
<!-- LayoutComponent -->
<g id="node2" class="node">
<title>LayoutComponent</title>
<polygon fill="#ffffb3" stroke="#000000" points="455.4902,-122 334.5098,-122 334.5098,-86 455.4902,-86 455.4902,-122"/>
<text text-anchor="middle" x="395" y="-99.8" font-family="Times,serif" font-size="14.00" fill="#000000">LayoutComponent</text>
</g>
<!-- LayoutComponent&#45;&gt;LayoutModule -->
<g id="edge2" class="edge">
<title>LayoutComponent&#45;&gt;LayoutModule</title>
<path fill="none" stroke="#000000" d="M354.0544,-122.1061C354.0544,-122.1061 354.0544,-140.991 354.0544,-140.991"/>
<polygon fill="#000000" stroke="#000000" points="350.5544,-140.9909 354.0544,-150.991 357.5544,-140.991 350.5544,-140.9909"/>
</g>
<!-- SidebarComponent -->
<g id="node3" class="node">
<title>SidebarComponent</title>
<polygon fill="#ffffb3" stroke="#000000" points="316.0954,-122 191.9046,-122 191.9046,-86 316.0954,-86 316.0954,-122"/>
<text text-anchor="middle" x="254" y="-99.8" font-family="Times,serif" font-size="14.00" fill="#000000">SidebarComponent</text>
</g>
<!-- SidebarComponent&#45;&gt;LayoutModule -->
<g id="edge3" class="edge">
<title>SidebarComponent&#45;&gt;LayoutModule</title>
<path fill="none" stroke="#000000" d="M295.222,-122.1061C295.222,-122.1061 295.222,-140.991 295.222,-140.991"/>
<polygon fill="#000000" stroke="#000000" points="291.722,-140.9909 295.222,-150.991 298.722,-140.991 291.722,-140.9909"/>
</g>
<!-- LayoutComponent  -->
<g id="node6" class="node">
<title>LayoutComponent </title>
<polygon fill="#80b1d3" stroke="#000000" points="386.4912,-252 261.5088,-252 261.5088,-216 386.4912,-216 386.4912,-252"/>
<text text-anchor="middle" x="324" y="-229.8" font-family="Times,serif" font-size="14.00" fill="#000000">LayoutComponent </text>
</g>
<!-- LayoutModule&#45;&gt;LayoutComponent  -->
<g id="edge5" class="edge">
<title>LayoutModule&#45;&gt;LayoutComponent </title>
<path fill="none" stroke="#000000" stroke-dasharray="1,5" d="M324,-187.1061C324,-187.1061 324,-205.991 324,-205.991"/>
<polygon fill="#000000" stroke="#000000" points="320.5001,-205.9909 324,-215.991 327.5001,-205.991 320.5001,-205.9909"/>
</g>
<!-- LayoutRoutingModule -->
<g id="node5" class="node">
<title>LayoutRoutingModule</title>
<polygon fill="#8dd3c7" stroke="#000000" points="168.3258,-122 165.3258,-126 144.3258,-126 141.3258,-122 23.6742,-122 23.6742,-86 168.3258,-86 168.3258,-122"/>
<text text-anchor="middle" x="96" y="-99.8" font-family="Times,serif" font-size="14.00" fill="#000000">LayoutRoutingModule</text>
</g>
<!-- LayoutRoutingModule&#45;&gt;LayoutModule -->
<g id="edge4" class="edge">
<title>LayoutRoutingModule&#45;&gt;LayoutModule</title>
<path fill="none" stroke="#000000" d="M96,-122.1061C96,-141.3391 96,-169 96,-169 96,-169 264.2462,-169 264.2462,-169"/>
<polygon fill="#000000" stroke="#000000" points="264.2462,-172.5001 274.2462,-169 264.2461,-165.5001 264.2462,-172.5001"/>
</g>
</g>
</svg>
